<svg width="119" height="120" viewBox="0 0 119 120" fill="none" xmlns="http://www.w3.org/2000/svg">
<circle cx="51.3453" cy="68.0597" r="51.3453" fill="#C1C1C1"/>
<path d="M115.404 2.72297C113.97 2.72297 112.296 2.72297 110.862 2.72297C101.063 3.201 91.7409 5.35217 82.8973 9.65449C72.1414 14.6739 63.0588 21.8444 55.8882 31.4051C50.8688 37.8586 47.2836 45.0292 44.6544 52.6778C44.4154 53.1558 44.6544 53.3948 44.8934 53.6338C47.0445 55.785 49.1957 57.9362 51.3469 60.0873C51.5859 60.3263 51.8249 60.8044 51.8249 61.2824C51.8249 61.7604 51.5859 62.2385 51.1079 62.4775C50.6298 62.7165 49.9128 62.7165 49.6737 62.2385C48.4787 61.0434 47.5226 60.0873 46.3275 58.8922C44.8934 57.4581 43.6983 56.024 42.2642 54.8289C41.7862 54.3509 41.5471 53.6338 41.7862 52.9168C44.8934 43.5951 49.4347 34.9904 55.8882 27.3418C62.3417 19.4542 70.2293 13.2398 79.073 8.69842C87.1996 4.39609 96.0433 1.76689 105.126 0.571804C108.95 0.0937679 112.775 -0.14525 116.599 0.093768C117.794 0.093768 118.033 0.571804 118.272 1.76689C118.75 17.3031 114.926 31.6442 106.56 45.0292C98.1944 58.1752 86.7216 67.9749 72.3805 74.1894C70.2293 75.1455 67.8391 75.8625 65.4489 76.8186C64.7319 77.0576 64.2539 77.0576 63.7758 76.3406C61.3856 73.9504 58.7564 71.3212 56.3663 68.931C55.8882 68.453 55.6492 67.7359 56.1272 67.0188C56.6053 66.3018 57.5613 66.3018 58.2784 67.0188C60.4296 69.17 62.5807 71.3212 64.7319 73.4723C65.2099 73.9504 65.4489 73.9504 65.927 73.7114C76.4438 70.1261 85.7655 64.3896 93.6531 56.7411C102.975 47.6584 109.189 36.9026 112.775 24.7126C114.687 18.0201 115.643 11.0886 115.643 3.91806C115.643 3.44002 115.404 3.201 115.404 2.72297Z" fill="#172419"/>
<path d="M102.257 30.688C102.257 38.8146 95.8034 45.2681 87.6768 45.2681C79.5502 45.2681 73.0967 38.8146 73.0967 30.688C73.0967 22.8004 79.5502 16.1079 87.4378 16.1079C95.8034 16.1079 102.257 22.5614 102.257 30.688ZM99.3887 30.927C99.3887 24.2345 94.1303 18.9761 87.4378 18.9761C80.7453 18.9761 75.4869 24.2345 75.4869 30.927C75.4869 37.6195 80.7453 42.8779 87.4378 42.8779C94.1303 42.6389 99.3887 37.3805 99.3887 30.927Z" fill="#172419"/>
<path d="M65.6873 91.8768C67.3605 90.9208 69.0336 89.7257 70.4677 88.5306C75.2481 84.2283 77.8773 78.9699 79.0724 72.7554C79.3114 71.7993 79.7894 71.3213 80.5065 71.3213C81.4625 71.3213 81.9406 72.0383 81.9406 72.9944C81.7016 74.1895 81.4625 75.6236 80.9845 76.8187C78.3553 84.9453 73.5749 90.9208 66.1654 94.9841C64.4923 95.9402 63.7752 95.4621 63.5362 93.789C62.5801 88.7696 61.624 83.5112 60.668 78.4918C60.668 78.0138 60.668 77.5358 60.668 77.2967C60.907 76.8187 61.385 76.5797 62.1021 76.5797C62.5801 76.5797 63.0581 77.0577 63.2972 77.5358C63.5362 78.9699 63.7752 80.404 64.2532 82.0771C64.4923 85.4234 65.2093 88.5306 65.6873 91.8768Z" fill="#172419"/>
<path d="M26.249 52.4387C27.6831 52.6777 29.1172 52.9167 30.3123 53.1558C33.6585 53.8728 37.0048 54.3508 40.112 55.0679C40.351 55.0679 40.351 55.0679 40.59 55.0679C41.3071 55.3069 41.7851 56.024 41.5461 56.741C41.3071 57.4581 40.8291 57.9361 39.873 57.6971C37.9608 57.2191 35.8097 56.98 33.8975 56.502C30.7903 55.785 27.6831 55.3069 24.3368 54.5899C24.0978 54.5899 24.0978 54.5899 23.8588 54.5899C22.6637 54.3508 22.4247 53.6338 22.9027 52.4387C24.3368 49.8095 26.0099 47.1803 28.1611 45.0291C32.7024 40.2488 38.1999 37.6196 44.4143 36.1855C44.6534 36.1855 44.8924 36.1855 44.8924 35.9465C45.6094 35.7074 46.3265 36.1855 46.5655 36.9025C46.8045 37.6196 46.3265 38.3366 45.3704 38.5757C43.9363 39.0537 42.2632 39.2927 40.8291 39.7707C34.6146 41.9219 29.8342 45.7462 26.249 51.2436C26.488 51.9607 26.488 52.1997 26.249 52.4387Z" fill="#172419"/>
<path d="M43.2197 73.7112C43.4587 73.4722 43.6978 72.9942 43.9368 72.7551C48.4781 68.2138 52.7804 63.9115 57.3218 59.3701C58.9949 57.697 60.429 56.2629 62.1022 54.5898C62.8192 53.8727 63.5363 53.8727 64.2533 54.3507C64.7314 54.8288 64.7314 55.7848 64.0143 56.5019C58.7559 61.7603 53.4975 67.2577 48.0001 72.5161C47.283 73.2332 46.566 74.1892 45.6099 74.9063C45.1319 75.3843 44.6538 75.3843 44.1758 75.1453C43.4587 74.9063 43.2197 74.4283 43.2197 73.7112Z" fill="#172419"/>
<path d="M37.0051 79.9258C37.4831 80.1648 37.9612 80.4038 38.2002 80.8818C38.4392 81.3599 38.2002 81.8379 37.9612 82.316C37.7222 82.555 37.2441 83.033 37.0051 83.5111C34.1369 86.3793 31.2687 89.4865 28.1614 92.3547C27.6834 92.5937 27.4444 92.8328 26.9663 92.8328C26.4883 92.8328 26.0103 92.5937 25.7713 92.1157C25.5322 91.3986 25.5322 90.9206 26.0103 90.4426C27.9224 88.5304 29.8346 86.6183 31.7467 84.7061C33.1808 83.272 34.3759 82.0769 35.81 80.6428C36.2881 80.4038 36.5271 80.1648 37.0051 79.9258Z" fill="#172419"/>
<path d="M34.8538 70.126C36.0489 70.126 36.766 71.3211 36.2879 72.0381C36.0489 72.2771 36.0489 72.5162 35.8099 72.7552C32.7027 75.8624 29.5954 78.9696 26.4882 82.0769L26.2492 82.3159C25.5321 82.7939 24.8151 83.033 24.337 82.3159C23.859 81.8379 23.859 80.8818 24.337 80.4038C26.7272 78.0136 29.1174 75.6234 31.5076 73.2332C32.4637 72.2771 33.1807 71.5601 34.1368 70.843C34.3758 70.365 34.8538 70.126 34.8538 70.126Z" fill="#172419"/>
<path d="M48.2396 83.5113C48.2396 83.7503 48.0006 83.9893 47.7616 84.4673C44.4154 87.8136 41.3081 90.9208 37.9619 94.2671C37.2448 94.9841 36.5278 94.9841 35.8107 94.2671C35.3327 93.7891 35.3327 92.833 36.0497 92.355C39.396 89.0087 42.5032 85.9015 45.8495 82.5552C46.3275 82.0772 46.8055 81.8381 47.5226 82.0772C48.0006 82.3162 48.2396 82.5552 48.2396 83.5113Z" fill="#172419"/>
</svg>
