<svg width="100" height="89" viewBox="0 0 100 89" fill="none" xmlns="http://www.w3.org/2000/svg">
<path fill-rule="evenodd" clip-rule="evenodd" d="M43.7499 78.8758C43.7499 84.0516 39.5507 88.2508 34.3749 88.2508H9.37498C4.19921 88.2508 0 84.0516 0 78.8758V32.0009C0 14.7352 13.9843 0.750977 31.2499 0.750977H32.8124C35.41 0.750977 37.4999 2.84085 37.4999 5.43847V14.8134C37.4999 17.4111 35.41 19.5009 32.8124 19.5009H31.2499C24.3554 19.5009 18.75 25.1064 18.75 32.0009V44.5009H34.3749C39.5507 44.5009 43.7499 48.7001 43.7499 53.8759V78.8758ZM99.9998 78.8758C99.9998 84.0516 95.8006 88.2508 90.6248 88.2508H65.6248C60.4491 88.2508 56.2499 84.0516 56.2499 78.8758V32.0009C56.2499 14.7352 70.2341 0.750977 87.4998 0.750977H89.0623C91.6599 0.750977 93.7498 2.84085 93.7498 5.43847V14.8134C93.7498 17.4111 91.6599 19.5009 89.0623 19.5009H87.4998C80.6053 19.5009 74.9998 25.1064 74.9998 32.0009V44.5009H90.6248C95.8006 44.5009 99.9998 48.7001 99.9998 53.8759V78.8758Z" fill="#577356"/>
</svg>
