<svg width="99" height="121" viewBox="0 0 99 121" fill="none" xmlns="http://www.w3.org/2000/svg">
<circle cx="49.5" cy="71.3569" r="49.5" fill="#BABBBA"/>
<path d="M52.2736 63.1368C51.3518 63.3672 50.6606 63.5976 49.9693 64.0585C49.0476 62.6759 48.3563 61.0629 47.4346 59.9108C45.8216 57.6065 43.9782 55.5327 42.3652 53.2284C39.8305 49.772 37.7566 46.3155 36.8349 41.9374C34.7611 31.1073 40.7522 20.5076 51.1214 16.3599C64.7167 10.8296 80.3858 20.0467 82.4596 34.5637C83.3813 41.2461 81.3075 46.7764 77.6206 52.0762C76.0076 54.3805 73.9338 56.6848 72.3208 59.2195C71.1687 60.8325 70.4774 62.4455 69.3253 64.0585C68.8644 64.7498 68.4035 65.4411 67.7123 65.6715C62.4124 67.7453 57.1126 69.5888 51.8127 71.4322C51.1215 71.6626 50.6606 71.4322 50.4302 70.9713C50.1997 70.28 50.1998 69.5888 50.891 69.3583C51.3519 69.1279 51.8127 68.8975 52.2736 68.8975C56.8821 67.2845 61.4907 65.6715 66.0992 63.8281C66.5601 63.5976 67.0209 63.1368 67.2514 62.6759C69.0948 59.2195 71.3991 56.4544 73.7034 53.2284C76.0077 50.2328 78.0815 47.4677 79.0032 43.7808C81.3075 36.4071 79.6945 29.9552 74.6251 24.4249C68.8644 17.9729 61.4907 15.899 53.1953 18.4338C44.8999 20.9685 40.2913 26.7292 38.6783 35.255C37.5262 41.2461 39.6 46.3155 43.0564 50.9241C45.1303 53.6892 47.2042 56.4544 49.278 59.2195C50.6606 60.1412 51.3518 61.5238 52.2736 63.1368Z" fill="#172419"/>
<path d="M51.1209 85.9498C50.8905 85.7193 50.4297 85.4889 50.4297 85.0281C50.4297 84.5672 50.6601 84.1063 50.8906 83.6455C50.8906 83.4151 51.3514 83.4151 51.5818 83.4151C56.6512 81.5716 61.9511 79.7282 67.0205 77.8848C68.1727 77.4239 68.6335 77.6544 68.8639 78.3456C69.0944 79.0369 68.6335 79.7282 67.7118 80.1891C62.4119 82.0325 57.3426 83.8759 52.0427 85.9498C51.8123 85.7193 51.5818 85.7193 51.1209 85.9498Z" fill="#172419"/>
<path d="M51.1209 78.3453C50.8905 78.1148 50.4297 77.8844 50.4297 77.4236C50.4297 76.9627 50.6601 76.5018 50.8906 76.041C50.8906 75.8106 51.3514 75.8106 51.5818 75.8106C56.6512 73.9671 61.9511 72.1237 67.0205 70.2803C68.1727 69.8194 68.6335 70.0499 68.8639 70.7411C69.0944 71.4324 68.8639 72.1237 67.7118 72.5846C62.4119 74.428 57.3426 76.5018 52.0427 78.3453C51.8123 78.3453 51.5818 78.3453 51.1209 78.3453Z" fill="#172419"/>
<path d="M67.713 84.7974C66.1 90.3276 57.1133 93.5536 51.583 90.5581C56.8829 88.7146 62.1827 86.6408 67.713 84.7974Z" fill="#172419"/>
<path d="M60.7994 4.1477C60.7994 5.06942 60.7994 5.99113 60.7994 6.91284C60.7994 7.60412 60.3385 8.06498 59.6473 8.06498C58.956 8.06498 58.4951 7.60412 58.4951 6.91284C58.4951 5.06942 58.4951 3.22599 58.4951 1.15214C58.4951 0.460856 58.956 0 59.6473 0C60.3385 0 60.7994 0.460856 60.7994 1.15214C60.7994 2.07385 60.7994 3.22599 60.7994 4.1477Z" fill="#172419"/>
<path d="M26.0051 36.4077C26.9268 36.4077 27.8485 36.4077 28.7703 36.4077C29.692 36.4077 30.1528 36.8686 30.1528 37.5599C30.1528 38.2511 29.692 38.712 28.7703 38.712C26.9268 38.712 25.0834 38.712 23.24 38.712C22.3183 38.712 21.8574 38.2511 21.8574 37.5599C21.8574 36.8686 22.3183 36.4077 23.24 36.4077C24.1617 36.4077 25.0834 36.4077 26.0051 36.4077Z" fill="#172419"/>
<path d="M93.2894 38.9425C92.3677 38.9425 91.4459 38.9425 90.5242 38.9425C89.8329 38.9425 89.3721 38.4816 89.3721 37.7903C89.3721 37.099 89.8329 36.6382 90.5242 36.6382C92.3676 36.6382 94.4415 36.6382 96.2849 36.6382C96.9762 36.6382 97.437 37.099 97.437 37.7903C97.437 38.4816 96.9762 38.9425 96.2849 38.9425C95.1328 38.9425 94.2111 38.9425 93.2894 38.9425Z" fill="#172419"/>
<path d="M33.3784 10.1387C33.8393 10.3691 34.0697 10.5995 34.3001 10.83C35.6827 12.2125 36.8349 13.3647 38.2174 14.7472C38.9087 15.4385 38.9087 15.8994 38.2174 16.5907C37.7566 17.0515 37.0653 17.0515 36.374 16.5907C34.9914 15.2081 33.6089 14.0559 32.4567 12.6734C32.2263 12.443 31.9959 11.7517 32.2263 11.2908C32.4567 10.5995 33.148 10.3691 33.3784 10.1387Z" fill="#172419"/>
<path d="M81.5376 58.2988C81.9985 58.5293 82.2289 58.7597 82.4593 58.9901C83.8419 60.1423 84.9941 61.5248 86.3766 62.677C87.0679 63.3682 87.0679 64.0595 86.6071 64.5204C86.1462 64.9812 85.4549 64.9812 84.7636 64.29C83.3811 62.9074 82.229 61.7553 80.8464 60.3727C80.616 60.1423 80.3855 59.451 80.616 58.9901C80.616 58.7597 81.0768 58.5293 81.5376 58.2988Z" fill="#172419"/>
<path d="M87.0681 11.5215C86.8377 11.9824 86.6073 12.2128 86.3768 12.4432C84.9943 13.8258 83.8421 14.9779 82.4595 16.3605C81.9987 16.8214 81.3074 17.0518 80.6161 16.3605C80.1553 15.8996 80.1553 15.2084 80.6161 14.5171C81.9987 13.1345 83.1508 11.7519 84.5334 10.5998C84.7638 10.3694 85.4551 10.1389 85.916 10.3694C86.3768 10.5998 86.6072 11.2911 87.0681 11.5215Z" fill="#172419"/>
<path d="M33.3786 64.9807C33.1482 64.7503 32.6873 64.5199 32.4569 64.059C32.2265 63.8286 32.4569 63.1373 32.4569 62.9069C33.8395 61.5243 35.222 59.9113 36.835 58.5287C37.2959 58.0679 37.9871 58.0679 38.448 58.5287C38.9088 58.9896 38.9088 59.6809 38.448 60.1417C37.0654 61.5243 35.6829 62.9069 34.3003 64.2894C34.0699 64.7503 33.8395 64.9807 33.3786 64.9807Z" fill="#172419"/>
</svg>
