<svg width="54" height="100" viewBox="0 0 54 100" fill="none" xmlns="http://www.w3.org/2000/svg">
<g clip-path="url(#clip0_54_5368)">
<path fill-rule="evenodd" clip-rule="evenodd" d="M29.1224 42.0654C28.9672 42.3832 28.812 42.7745 28.6586 43.1198C28.1948 44.1614 27.6737 45.2764 27.1471 46.2646C26.4228 47.6221 25.146 49.9183 24.1389 51.0204C23.9837 51.1894 23.9246 51.3106 23.7934 51.4502L23.0321 52.242C22.075 53.1861 21.0199 53.9815 19.5823 54.2369C18.5956 54.4132 17.644 54.2736 17.1728 53.6876C16.6277 53.0116 16.4485 52.365 16.5741 51.2519C16.8162 49.0953 18.2685 47.3282 19.9408 46.0699C20.0202 46.0111 20.0701 45.9597 20.157 45.8972C21.4375 44.9696 22.9176 44.1705 24.4346 43.5662C25.1922 43.2649 25.9257 42.9967 26.7166 42.7359C27.1028 42.6073 28.799 42.0599 29.1242 42.0636L29.1224 42.0654ZM37.9695 42.7341C37.5279 42.7433 37.114 42.7616 36.6705 42.7782C34.8209 42.8461 35.5101 42.5577 34.091 44.2606L32.2322 46.4153C32.1084 46.5567 32.0197 46.6283 31.9014 46.7735C31.3804 47.4145 29.4919 49.3084 28.8933 49.8503L26.7554 51.7699C26.6205 51.8893 26.517 51.9793 26.3747 52.0803C26.2232 52.1887 26.1493 52.2732 25.9793 52.3834L25.8056 52.2071C25.8703 52.0748 25.9996 51.9444 26.0883 51.836C27.5702 50.0285 28.8101 48.0556 29.9114 45.956C30.5119 44.8116 31.0496 43.6819 31.6132 42.4824C31.7499 42.1922 31.8793 41.8873 32.0086 41.5842C32.2396 41.0441 32.1176 41.1304 32.7551 41.0331C34.9096 40.7043 37.94 40.4489 40.0483 40.5812C42.916 40.7612 45.6433 41.4152 47.8348 43.2117C48.1692 43.4872 48.7014 44.143 48.9564 44.6775C49.2687 45.3333 49.4183 46.0809 49.3333 46.88C49.1892 48.2173 48.5185 49.4847 47.7239 50.4491C47.6112 50.5851 47.5318 50.6806 47.4394 50.811C46.8148 51.6744 45.2904 52.9859 44.4164 53.6141C40.0113 56.7828 35.6358 57.8942 30.1516 58.8824C28.6235 59.158 27.0917 59.3582 25.5063 59.4115C23.3167 59.4868 22.6367 59.2645 20.6503 59.0459L20.4896 59.8064C22.6219 60.5283 25.8648 60.8755 28.2798 60.7763C30.9702 60.6642 33.4332 60.1701 35.9869 59.6539C39.954 58.8512 43.6902 57.3945 47.0015 55.238C47.6777 54.7971 48.2912 54.3269 48.9194 53.8309C49.1449 53.6527 49.3149 53.4819 49.5255 53.3129C50.1759 52.793 51.1146 51.7405 51.6542 51.0406C51.9683 50.6328 52.2344 50.1975 52.5318 49.718C53.8512 47.5872 54.2706 44.3689 52.5706 42.2069C52.0773 41.5787 51.7761 41.316 51.1885 40.8274C48.9952 39.0015 45.4364 38.1693 42.5594 37.8809C42.0346 37.8277 40.8761 37.8277 40.4622 37.7285C40.9112 36.9441 41.8794 34.6737 42.2065 33.8599C43.875 29.7269 45.5121 24.4475 44.9042 19.8773C44.4441 16.4129 42.7904 14.3996 39.3221 14.1406C37.6739 14.0175 35.9056 14.3904 34.5234 14.9507C33.5053 15.364 32.635 15.8306 31.7296 16.389C31.1402 16.7527 30.6339 17.1403 30.0962 17.5628C29.0522 18.3839 28.0414 19.284 27.1674 20.2906C26.8404 20.6672 26.4838 21.018 26.177 21.4148C25.667 22.0706 25.0905 22.6915 24.6138 23.3895L24.0188 24.2161C23.2391 25.3146 22.5332 26.5012 21.8107 27.6566C20.1348 30.3404 18.215 34.0638 16.9271 36.9184C15.8757 39.2458 14.4899 42.8131 14.3309 45.6676L15.0793 45.8072C15.2253 45.1423 15.593 44.2734 15.8424 43.6709C17.6218 39.3376 20.4545 34.5084 23.034 30.638C23.4257 30.052 23.8045 29.4881 24.2202 28.9351C24.5325 28.5182 24.8078 28.0773 25.133 27.6915L28.1615 24.2032C28.6253 23.7146 29.1058 23.2113 29.6324 22.7815C30.1608 22.3479 30.6431 21.8685 31.1974 21.4552C31.7425 21.0474 32.2858 20.6635 32.9066 20.2704C33.3519 19.9893 34.3109 19.4254 34.8653 19.2711C34.6602 22.2488 34.0134 25.3072 33.3852 28.1526C33.0748 29.5615 32.757 30.9539 32.4188 32.3518L31.6354 35.4452C31.5467 35.7832 31.4099 36.1506 31.3434 36.461C32.2433 36.3434 33.0563 36.0532 33.982 35.9283C34.8671 33.3199 35.621 30.5553 36.2862 27.7632C36.883 25.2576 37.7312 21.2697 37.7459 18.7237C38.9913 18.72 39.5032 19.0544 40.1407 19.666C42.1141 21.5544 41.6688 25.4579 41.2124 27.8826C40.5749 31.2644 39.0782 35.0319 37.6646 37.7762C32.3782 38.241 28.4017 39.1907 23.5606 41.4464C21.5742 42.3722 19.5306 43.7021 18.1355 44.9163L17.5535 45.4141C16.3653 46.4189 14.706 48.4506 14.2958 49.9697C13.9263 49.5343 13.4699 46.9663 13.3701 46.1893C12.8213 41.9626 13.2592 37.3648 13.9983 33.228C15.277 26.0787 17.5682 18.3122 21.2268 12.2725C21.9161 11.1354 22.5979 10.1306 23.3666 9.14785L24.7469 7.59382C25.7557 6.59086 26.9069 5.67975 28.3426 5.27196C29.8523 4.84212 31.0108 5.33808 32.0068 6.02326C33.3704 6.96192 34.1335 8.85762 34.5105 10.5898C34.6435 11.2015 34.7156 12.0281 34.8727 12.5994L37.6277 11.6791C37.7607 9.07989 37.3136 6.42738 36.373 4.26532C34.7766 0.58965 31.8386 -0.901927 28.0414 0.543727C26.5373 1.11501 25.1996 2.0647 24.0392 3.14848C23.6308 3.53056 23.2927 3.80426 22.9139 4.22491C22.245 4.96886 21.5502 5.73118 20.8961 6.6074C19.4992 8.47554 18.2168 10.566 17.1192 12.6637C16.2138 14.3923 15.4488 16.1447 14.6968 17.9596C11.053 26.7584 8.83011 38.0848 10.7167 47.6754C11.6221 52.2787 13.8283 57.0933 18.1281 57.8207C21.589 58.4067 25.1497 56.2171 27.5776 54.3048L28.7824 53.3092C29.3995 52.8096 29.9262 52.2787 30.4805 51.7258C30.972 51.2353 32.1897 50.0487 32.6221 49.5086C32.7255 49.38 32.7699 49.3415 32.8881 49.2147C32.9842 49.1119 33.0434 49.0071 33.1394 48.9024L37.0549 44.0162C37.3487 43.6103 37.7441 43.1841 37.9751 42.7341H37.9695Z" fill="#006600"/>
<path fill-rule="evenodd" clip-rule="evenodd" d="M36.7175 73.9417C36.7045 74.2485 36.274 76.3205 36.1798 76.8073C35.9192 78.1519 35.3797 81.2894 34.9732 82.4062C34.1712 84.6142 32.6043 87.0371 30.4184 88.0364C28.4598 88.931 26.4623 88.3303 25.5846 86.9783C24.5998 85.461 24.5573 83.2659 24.9804 81.2949C25.5717 78.5469 26.8189 76.5667 28.7739 74.9098C28.8977 74.8051 29.1231 74.6618 29.2802 74.5534C29.4613 74.4303 29.6239 74.3385 29.8197 74.2283C31.5566 73.2474 33.4617 73.0765 35.4277 73.5339C35.9211 73.6478 36.2943 73.8278 36.7156 73.9417H36.7175ZM34.417 86.9214C34.5426 87.0867 34.2507 88.0088 34.21 88.1889C34.1177 88.615 34.0253 89.0228 33.9255 89.4563C33.3157 92.096 32.5581 94.517 30.3981 96.0619C30.241 96.1739 30.1043 96.2695 29.9269 96.3668C27.632 97.6104 24.524 97.3018 22.1552 96.3668C21.7486 96.207 21.4124 95.9829 21.0816 95.8451L20.0635 98.5895C21.0945 99.034 20.8358 99.0873 22.2919 99.4988C24.7698 100.2 28.1309 100.18 30.4905 99.339C31.6398 98.9293 32.5988 98.4003 33.4432 97.6288C34.9159 96.2823 35.6753 94.8789 36.4163 92.7518C37.2958 90.226 38.0719 85.3122 38.6151 82.4595L40.5645 71.9138C40.1968 71.6272 38.4377 71.1018 37.8409 70.9604C36.7932 70.7143 35.7123 70.5306 34.5851 70.4846C31.5382 70.3652 28.3766 71.3425 26.2203 73.1923C25.2465 74.0281 24.2542 74.9851 23.5484 76.0872C22.7908 77.2684 22.1552 78.4165 21.7376 79.8382C20.8802 82.7571 20.603 86.2876 22.5062 88.8704C22.8019 89.2726 23.0421 89.5537 23.3895 89.8439C23.7091 90.1121 24.051 90.3877 24.4944 90.5952C26.854 91.6992 29.6774 91.3282 31.7377 89.8237C32.2994 89.4122 32.2588 89.4159 32.7503 88.9787L33.41 88.2568C33.506 88.1448 33.5393 88.1209 33.6298 88.0015C33.737 87.8601 34.2913 87.0114 34.4151 86.9214H34.417Z" fill="#006600"/>
<path fill-rule="evenodd" clip-rule="evenodd" d="M10.8788 72.8465C13.1183 72.5361 14.4912 73.8146 15.0197 75.4917C15.9269 78.3665 14.7296 82.4187 12.9945 84.8269C12.758 85.1557 12.4864 85.5084 12.2461 85.7601C11.2539 86.7998 10.0011 87.946 7.95561 88.295C6.06534 88.6183 3.92931 88.2417 3.61704 85.964C3.48585 85.0014 3.6041 83.8038 3.8166 82.8871C4.03094 81.9576 4.20093 81.019 4.43191 80.0987C5.07124 77.5399 6.41457 75.2621 8.4194 73.8201C9.03102 73.3811 9.93643 72.9751 10.8806 72.8447L10.8788 72.8465ZM5.58492 74.0534L8.26419 60.8864L4.8107 60.8845C4.67951 60.9764 4.67396 61.2556 4.6407 61.4172C4.60005 61.6211 4.55755 61.8213 4.5169 62.0252L2.80956 70.442C2.15914 73.6548 1.50134 76.8473 0.85831 80.0766C0.0711574 84.0352 -1.35532 88.9471 3.09042 90.6206C5.38721 91.4857 8.43049 91.1569 10.5758 90.3377C20.2895 86.6344 22.1872 70.0893 13.0333 69.9001C11.1633 69.8615 9.81263 70.3832 8.51918 71.1658C8.24017 71.3348 7.90018 71.5791 7.68769 71.7609C7.24237 72.1375 6.54946 72.7859 6.22979 73.2378C6.13925 73.3664 5.68654 73.9964 5.58492 74.0516V74.0534Z" fill="#006600"/>
<path fill-rule="evenodd" clip-rule="evenodd" d="M41.5186 91.2321L44.9924 91.2358L51.0124 60.8881L47.4924 60.8862L41.5186 91.2321Z" fill="#006600"/>
</g>
<defs>
<clipPath id="clip0_54_5368">
<rect width="53.6842" height="100" fill="white"/>
</clipPath>
</defs>
</svg>
