<?xml version="1.0" encoding="UTF-8"?>
<!DOCTYPE svg PUBLIC "-//W3C//DTD SVG 1.1//EN" "http://www.w3.org/Graphics/SVG/1.1/DTD/svg11.dtd">
<!-- Creator: CorelDRAW -->
<svg xmlns="http://www.w3.org/2000/svg" xml:space="preserve" width="6.54276in" height="1.49985in" version="1.1" style="shape-rendering:geometricPrecision; text-rendering:geometricPrecision; image-rendering:optimizeQuality; fill-rule:evenodd; clip-rule:evenodd"
viewBox="0 0 369.58 84.72"
 xmlns:xlink="http://www.w3.org/1999/xlink"
 xmlns:xodm="http://www.corel.com/coreldraw/odm/2003">
 <defs>
  <style type="text/css">
   <![CDATA[
    .fil1 {fill:white}
    .fil0 {fill:white;fill-rule:nonzero}
   ]]>
  </style>
 </defs>
 <g id="Layer_x0020_1">
  <metadata id="CorelCorpID_0Corel-Layer"/>
  <g id="_1801456180080">
   <path class="fil0" d="M362.47 57.4c0.39,0 0.82,-0.08 1.2,-0.2l0 1.26c-0.15,0.08 -0.43,0.16 -0.7,0.2 -0.31,0.08 -0.58,0.08 -0.9,0.08 -1.59,0 -2.37,-0.82 -2.37,-2.51l0 -4.24 -1.05 0 0 -0.75 1.13 -0.63 0.58 -1.65 1.01 0 0 1.77 2.22 0 0 1.26 -2.22 0 0 4.24c0,0.39 0.12,0.67 0.31,0.86 0.19,0.2 0.47,0.31 0.78,0.31zm-5.21 1.22l-1.67 0 0 -4.87c0,-0.63 -0.12,-1.06 -0.39,-1.37 -0.23,-0.28 -0.62,-0.43 -1.13,-0.43 -0.74,0 -1.24,0.2 -1.55,0.63 -0.31,0.43 -0.51,1.1 -0.51,2.08l0 3.97 -1.63 0 0 -7.89 1.28 0 0.23 1.02 0.08 0c0.23,-0.39 0.58,-0.67 1.01,-0.86 0.43,-0.24 0.93,-0.31 1.44,-0.31 1.87,0 2.84,0.94 2.84,2.87l0 5.18zm-12.13 -6.79c-0.54,0 -0.93,0.16 -1.28,0.51 -0.31,0.35 -0.5,0.82 -0.54,1.49l3.54 0c0,-0.67 -0.16,-1.14 -0.47,-1.49 -0.31,-0.35 -0.7,-0.51 -1.24,-0.51zm0.31 6.91c-1.2,0 -2.18,-0.35 -2.87,-1.06 -0.66,-0.71 -1.01,-1.69 -1.01,-2.94 0,-1.3 0.31,-2.32 0.97,-3.06 0.62,-0.75 1.48,-1.1 2.6,-1.1 1.01,0 1.83,0.31 2.45,0.94 0.58,0.63 0.9,1.49 0.9,2.63l0 0.9 -5.21 0c0.04,0.75 0.23,1.33 0.62,1.77 0.39,0.39 0.93,0.59 1.63,0.59 0.47,0 0.89,-0.04 1.28,-0.12 0.39,-0.08 0.82,-0.23 1.28,-0.43l0 1.38c-0.39,0.2 -0.82,0.31 -1.24,0.39 -0.39,0.08 -0.89,0.12 -1.4,0.12zm-7.54 -10.13c0,-0.27 0.08,-0.51 0.23,-0.67 0.16,-0.2 0.39,-0.27 0.7,-0.27 0.27,0 0.51,0.08 0.66,0.27 0.16,0.16 0.27,0.39 0.27,0.67 0,0.31 -0.12,0.51 -0.27,0.67 -0.15,0.2 -0.39,0.28 -0.66,0.28 -0.31,0 -0.54,-0.08 -0.7,-0.28 -0.15,-0.16 -0.23,-0.35 -0.23,-0.67zm1.75 10.01l-1.67 0 0 -7.89 1.67 0 0 7.89zm-5.67 0.12c-1.21,0 -2.1,-0.31 -2.72,-1.02 -0.58,-0.71 -0.9,-1.73 -0.9,-3.02 0,-1.34 0.31,-2.36 0.97,-3.06 0.62,-0.71 1.55,-1.06 2.76,-1.06 0.82,0 1.59,0.16 2.25,0.47l-0.5 1.34c-0.7,-0.28 -1.28,-0.39 -1.75,-0.39 -1.36,0 -2.02,0.9 -2.02,2.71 0,0.86 0.16,1.53 0.51,2 0.31,0.43 0.82,0.67 1.48,0.67 0.74,0 1.44,-0.2 2.1,-0.59l0 1.49c-0.31,0.16 -0.62,0.31 -0.97,0.35 -0.31,0.08 -0.74,0.12 -1.2,0.12zm-7.31 -10.13c0,-0.27 0.08,-0.51 0.27,-0.67 0.15,-0.2 0.39,-0.27 0.66,-0.27 0.31,0 0.54,0.08 0.7,0.27 0.15,0.16 0.23,0.39 0.23,0.67 0,0.31 -0.08,0.51 -0.23,0.67 -0.16,0.2 -0.39,0.28 -0.7,0.28 -0.27,0 -0.51,-0.08 -0.66,-0.28 -0.19,-0.16 -0.27,-0.35 -0.27,-0.67zm1.79 10.01l-1.67 0 0 -7.89 1.67 0 0 7.89zm-2.99 -6.63l-1.94 0 0 6.63 -1.63 0 0 -6.63 -1.32 0 0 -0.79 1.32 -0.51 0 -0.51c0,-0.94 0.19,-1.65 0.62,-2.08 0.43,-0.47 1.09,-0.67 1.98,-0.67 0.58,0 1.17,0.08 1.75,0.28l-0.47 1.26c-0.39,-0.12 -0.78,-0.2 -1.17,-0.2 -0.35,0 -0.62,0.12 -0.82,0.35 -0.16,0.24 -0.27,0.59 -0.27,1.06l0 0.55 1.94 0 0 1.26zm-5.29 0l-1.9 0 0 6.63 -1.67 0 0 -6.63 -1.28 0 0 -0.79 1.28 -0.51 0 -0.51c0,-0.94 0.23,-1.65 0.66,-2.08 0.43,-0.47 1.09,-0.67 1.98,-0.67 0.58,0 1.17,0.08 1.75,0.28l-0.47 1.26c-0.39,-0.12 -0.78,-0.2 -1.17,-0.2 -0.39,0 -0.66,0.12 -0.82,0.35 -0.19,0.24 -0.27,0.59 -0.27,1.06l0 0.55 1.9 0 0 1.26zm-9.13 -0.16c-0.54,0 -0.97,0.16 -1.28,0.51 -0.31,0.35 -0.51,0.82 -0.58,1.49l3.58 0c0,-0.67 -0.16,-1.14 -0.47,-1.49 -0.31,-0.35 -0.74,-0.51 -1.24,-0.51zm0.31 6.91c-1.24,0 -2.18,-0.35 -2.88,-1.06 -0.66,-0.71 -1.01,-1.69 -1.01,-2.94 0,-1.3 0.31,-2.32 0.93,-3.06 0.66,-0.75 1.51,-1.1 2.64,-1.1 1.01,0 1.83,0.31 2.45,0.94 0.58,0.63 0.89,1.49 0.89,2.63l0 0.9 -5.21 0c0,0.75 0.23,1.33 0.62,1.77 0.39,0.39 0.93,0.59 1.63,0.59 0.43,0 0.89,-0.04 1.28,-0.12 0.39,-0.08 0.82,-0.23 1.28,-0.43l0 1.38c-0.43,0.2 -0.82,0.31 -1.24,0.39 -0.39,0.08 -0.89,0.12 -1.4,0.12zm-12.44 -6.91c-0.5,0 -0.93,0.16 -1.24,0.51 -0.31,0.35 -0.5,0.82 -0.58,1.49l3.54 0c0,-0.67 -0.16,-1.14 -0.47,-1.49 -0.27,-0.35 -0.7,-0.51 -1.24,-0.51zm0.31 6.91c-1.2,0 -2.18,-0.35 -2.84,-1.06 -0.7,-0.71 -1.05,-1.69 -1.05,-2.94 0,-1.3 0.35,-2.32 0.97,-3.06 0.62,-0.75 1.52,-1.1 2.6,-1.1 1.05,0 1.87,0.31 2.45,0.94 0.62,0.63 0.89,1.49 0.89,2.63l0 0.9 -5.21 0c0.04,0.75 0.23,1.33 0.62,1.77 0.39,0.39 0.93,0.59 1.63,0.59 0.47,0 0.89,-0.04 1.28,-0.12 0.43,-0.08 0.86,-0.23 1.28,-0.43l0 1.38c-0.39,0.2 -0.82,0.31 -1.2,0.39 -0.43,0.08 -0.89,0.12 -1.44,0.12zm-5.79 -0.12l-1.63 0 0 -11.11 1.63 0 0 11.11zm-7.11 -6.67c-0.66,0 -1.13,0.2 -1.44,0.59 -0.31,0.39 -0.47,1.06 -0.47,2l0 0.12c0,0.94 0.16,1.65 0.47,2.08 0.31,0.43 0.78,0.63 1.48,0.63 0.58,0 1.01,-0.24 1.32,-0.71 0.31,-0.47 0.47,-1.14 0.47,-2.04 0,-1.77 -0.62,-2.67 -1.83,-2.67zm0.43 -1.37c0.97,0 1.75,0.35 2.29,1.06 0.55,0.71 0.82,1.73 0.82,3.02 0,1.3 -0.27,2.28 -0.82,3.02 -0.58,0.71 -1.32,1.06 -2.29,1.06 -1.01,0 -1.79,-0.35 -2.33,-1.06l-0.12 0 -0.27 0.94 -1.28 0 0 -11.11 1.67 0 0 2.63c0,0.2 0,0.47 -0.04,0.86 0,0.39 0,0.63 -0.04,0.75l0.08 0c0.54,-0.79 1.32,-1.18 2.33,-1.18zm-9.95 6.91c0.58,0 1.09,-0.2 1.44,-0.51 0.35,-0.35 0.54,-0.82 0.54,-1.45l0 -0.67 -1.01 0.04c-0.78,0 -1.32,0.16 -1.71,0.39 -0.35,0.24 -0.51,0.59 -0.51,1.06 0,0.35 0.08,0.63 0.31,0.82 0.2,0.2 0.51,0.31 0.93,0.31zm2.45 1.14l-0.31 -1.1 -0.08 0c-0.35,0.47 -0.74,0.79 -1.13,0.98 -0.39,0.16 -0.85,0.24 -1.48,0.24 -0.78,0 -1.36,-0.2 -1.79,-0.63 -0.43,-0.39 -0.66,-0.98 -0.66,-1.77 0,-0.82 0.31,-1.41 0.89,-1.84 0.62,-0.39 1.52,-0.63 2.76,-0.67l1.32 -0.04 0 -0.43c0,-0.51 -0.12,-0.86 -0.35,-1.14 -0.23,-0.23 -0.58,-0.35 -1.05,-0.35 -0.43,0 -0.82,0.04 -1.17,0.16 -0.39,0.12 -0.74,0.28 -1.05,0.43l-0.54 -1.22c0.43,-0.2 0.89,-0.39 1.4,-0.51 0.5,-0.12 0.97,-0.16 1.4,-0.16 1.01,0 1.75,0.2 2.25,0.67 0.51,0.43 0.78,1.1 0.78,2.04l0 5.34 -1.21 0zm-7.19 0l-1.67 0 0 -4.87c0,-0.63 -0.12,-1.06 -0.35,-1.37 -0.27,-0.28 -0.62,-0.43 -1.17,-0.43 -0.7,0 -1.2,0.2 -1.55,0.63 -0.31,0.43 -0.47,1.1 -0.47,2.08l0 3.97 -1.67 0 0 -7.89 1.28 0 0.23 1.02 0.12 0c0.23,-0.39 0.54,-0.67 0.97,-0.86 0.47,-0.24 0.93,-0.31 1.48,-0.31 1.87,0 2.8,0.94 2.8,2.87l0 5.18zm-11 -10.01c0,-0.27 0.08,-0.51 0.23,-0.67 0.16,-0.2 0.39,-0.27 0.7,-0.27 0.27,0 0.51,0.08 0.66,0.27 0.2,0.16 0.27,0.39 0.27,0.67 0,0.31 -0.08,0.51 -0.27,0.67 -0.15,0.2 -0.39,0.28 -0.66,0.28 -0.31,0 -0.54,-0.08 -0.7,-0.28 -0.16,-0.16 -0.23,-0.35 -0.23,-0.67zm1.75 10.01l-1.67 0 0 -7.89 1.67 0 0 7.89zm-7.66 -1.14c0.62,0 1.09,-0.2 1.48,-0.51 0.35,-0.35 0.54,-0.82 0.54,-1.45l0 -0.67 -1.01 0.04c-0.78,0 -1.36,0.16 -1.71,0.39 -0.35,0.24 -0.54,0.59 -0.54,1.06 0,0.35 0.12,0.63 0.31,0.82 0.23,0.2 0.54,0.31 0.93,0.31zm2.49 1.14l-0.35 -1.1 -0.04 0c-0.39,0.47 -0.78,0.79 -1.13,0.98 -0.39,0.16 -0.89,0.24 -1.48,0.24 -0.78,0 -1.36,-0.2 -1.79,-0.63 -0.47,-0.39 -0.66,-0.98 -0.66,-1.77 0,-0.82 0.31,-1.41 0.89,-1.84 0.58,-0.39 1.52,-0.63 2.72,-0.67l1.36 -0.04 0 -0.43c0,-0.51 -0.12,-0.86 -0.35,-1.14 -0.23,-0.23 -0.58,-0.35 -1.09,-0.35 -0.39,0 -0.78,0.04 -1.13,0.16 -0.39,0.12 -0.74,0.28 -1.09,0.43l-0.54 -1.22c0.43,-0.2 0.9,-0.39 1.4,-0.51 0.5,-0.12 0.97,-0.16 1.44,-0.16 1.01,0 1.75,0.2 2.25,0.67 0.51,0.43 0.74,1.1 0.74,2.04l0 5.34 -1.16 0zm-7.66 -1.22c0.39,0 0.78,-0.08 1.21,-0.2l0 1.26c-0.2,0.08 -0.43,0.16 -0.7,0.2 -0.31,0.08 -0.62,0.08 -0.93,0.08 -1.55,0 -2.33,-0.82 -2.33,-2.51l0 -4.24 -1.09 0 0 -0.75 1.17 -0.63 0.54 -1.65 1.05 0 0 1.77 2.22 0 0 1.26 -2.22 0 0 4.24c0,0.39 0.08,0.67 0.27,0.86 0.19,0.2 0.47,0.31 0.82,0.31zm-4.7 -1.06c0,0.79 -0.31,1.37 -0.86,1.81 -0.54,0.39 -1.36,0.59 -2.37,0.59 -1.05,0 -1.9,-0.16 -2.53,-0.47l0 -1.45c0.93,0.43 1.79,0.67 2.57,0.67 1.01,0 1.55,-0.31 1.55,-0.94 0,-0.2 -0.08,-0.39 -0.19,-0.51 -0.12,-0.12 -0.31,-0.27 -0.54,-0.43 -0.27,-0.12 -0.62,-0.27 -1.09,-0.47 -0.9,-0.35 -1.52,-0.71 -1.83,-1.06 -0.31,-0.35 -0.47,-0.79 -0.47,-1.37 0,-0.67 0.27,-1.18 0.78,-1.57 0.54,-0.35 1.28,-0.55 2.22,-0.55 0.93,0 1.79,0.2 2.6,0.55l-0.54 1.26c-0.82,-0.35 -1.52,-0.51 -2.1,-0.51 -0.89,0 -1.32,0.24 -1.32,0.75 0,0.27 0.12,0.47 0.35,0.63 0.23,0.2 0.7,0.43 1.48,0.71 0.66,0.27 1.13,0.51 1.4,0.71 0.31,0.2 0.51,0.43 0.66,0.71 0.16,0.27 0.23,0.63 0.23,0.98zm-8.94 2.28l-0.23 -1.06 -0.08 0c-0.23,0.39 -0.58,0.67 -1.01,0.86 -0.43,0.24 -0.89,0.31 -1.44,0.31 -0.97,0 -1.67,-0.24 -2.14,-0.71 -0.47,-0.47 -0.7,-1.18 -0.7,-2.16l0 -5.14 1.67 0 0 4.87c0,0.59 0.12,1.02 0.39,1.34 0.23,0.31 0.62,0.47 1.13,0.47 0.7,0 1.24,-0.24 1.55,-0.63 0.31,-0.43 0.51,-1.14 0.51,-2.12l0 -3.92 1.67 0 0 7.89 -1.32 0zm-7.31 -2.28c0,0.79 -0.27,1.37 -0.85,1.81 -0.54,0.39 -1.36,0.59 -2.37,0.59 -1.05,0 -1.9,-0.16 -2.53,-0.47l0 -1.45c0.93,0.43 1.79,0.67 2.56,0.67 1.05,0 1.56,-0.31 1.56,-0.94 0,-0.2 -0.08,-0.39 -0.2,-0.51 -0.12,-0.12 -0.27,-0.27 -0.54,-0.43 -0.27,-0.12 -0.62,-0.27 -1.09,-0.47 -0.89,-0.35 -1.52,-0.71 -1.83,-1.06 -0.31,-0.35 -0.47,-0.79 -0.47,-1.37 0,-0.67 0.27,-1.18 0.82,-1.57 0.54,-0.35 1.24,-0.55 2.18,-0.55 0.93,0 1.79,0.2 2.6,0.55l-0.51 1.26c-0.85,-0.35 -1.55,-0.51 -2.14,-0.51 -0.9,0 -1.32,0.24 -1.32,0.75 0,0.27 0.12,0.47 0.35,0.63 0.23,0.2 0.74,0.43 1.48,0.71 0.66,0.27 1.13,0.51 1.44,0.71 0.27,0.2 0.51,0.43 0.62,0.71 0.16,0.27 0.23,0.63 0.23,0.98zm-13.25 1.37c0,-0.35 0.08,-0.63 0.27,-0.82 0.2,-0.16 0.43,-0.27 0.78,-0.27 0.35,0 0.62,0.12 0.78,0.31 0.19,0.2 0.27,0.43 0.27,0.79 0,0.31 -0.08,0.59 -0.27,0.78 -0.2,0.2 -0.43,0.31 -0.78,0.31 -0.35,0 -0.58,-0.12 -0.78,-0.31 -0.19,-0.2 -0.27,-0.43 -0.27,-0.78zm-2.06 0.9l-1.67 0 0 -4.87c0,-0.63 -0.12,-1.06 -0.35,-1.37 -0.27,-0.28 -0.62,-0.43 -1.17,-0.43 -0.7,0 -1.2,0.2 -1.55,0.63 -0.31,0.43 -0.47,1.1 -0.47,2.08l0 3.97 -1.67 0 0 -7.89 1.28 0 0.23 1.02 0.12 0c0.23,-0.39 0.54,-0.67 0.97,-0.86 0.47,-0.24 0.93,-0.31 1.48,-0.31 1.86,0 2.8,0.94 2.8,2.87l0 5.18zm-12.87 -1.14c0.62,0 1.09,-0.2 1.44,-0.51 0.39,-0.35 0.58,-0.82 0.58,-1.45l0 -0.67 -1.01 0.04c-0.78,0 -1.36,0.16 -1.71,0.39 -0.35,0.24 -0.54,0.59 -0.54,1.06 0,0.35 0.12,0.63 0.31,0.82 0.19,0.2 0.51,0.31 0.93,0.31zm2.49 1.14l-0.35 -1.1 -0.04 0c-0.39,0.47 -0.78,0.79 -1.17,0.98 -0.35,0.16 -0.86,0.24 -1.44,0.24 -0.78,0 -1.4,-0.2 -1.83,-0.63 -0.43,-0.39 -0.62,-0.98 -0.62,-1.77 0,-0.82 0.27,-1.41 0.89,-1.84 0.58,-0.39 1.52,-0.63 2.72,-0.67l1.36 -0.04 0 -0.43c0,-0.51 -0.12,-0.86 -0.35,-1.14 -0.23,-0.23 -0.58,-0.35 -1.09,-0.35 -0.39,0 -0.78,0.04 -1.17,0.16 -0.35,0.12 -0.7,0.28 -1.05,0.43l-0.54 -1.22c0.43,-0.2 0.89,-0.39 1.4,-0.51 0.51,-0.12 0.97,-0.16 1.44,-0.16 0.97,0 1.75,0.2 2.25,0.67 0.5,0.43 0.74,1.1 0.74,2.04l0 5.34 -1.17 0zm-10.14 -6.79c-0.51,0 -0.93,0.16 -1.24,0.51 -0.35,0.35 -0.51,0.82 -0.58,1.49l3.54 0c0,-0.67 -0.15,-1.14 -0.47,-1.49 -0.27,-0.35 -0.7,-0.51 -1.24,-0.51zm0.31 6.91c-1.21,0 -2.18,-0.35 -2.84,-1.06 -0.7,-0.71 -1.05,-1.69 -1.05,-2.94 0,-1.3 0.35,-2.32 0.97,-3.06 0.62,-0.75 1.52,-1.1 2.6,-1.1 1.05,0 1.86,0.31 2.45,0.94 0.62,0.63 0.89,1.49 0.89,2.63l0 0.9 -5.21 0c0.04,0.75 0.23,1.33 0.62,1.77 0.39,0.39 0.93,0.59 1.63,0.59 0.47,0 0.9,-0.04 1.28,-0.12 0.43,-0.08 0.85,-0.23 1.28,-0.43l0 1.38c-0.39,0.2 -0.82,0.31 -1.21,0.39 -0.43,0.08 -0.89,0.12 -1.44,0.12zm-5.79 -0.12l-1.63 0 0 -11.11 1.63 0 0 11.11zm-5.67 0.12c-1.17,0 -2.06,-0.31 -2.68,-1.02 -0.62,-0.71 -0.93,-1.73 -0.93,-3.02 0,-1.34 0.31,-2.36 0.97,-3.06 0.62,-0.71 1.55,-1.06 2.8,-1.06 0.82,0 1.55,0.16 2.21,0.47l-0.51 1.34c-0.7,-0.28 -1.28,-0.39 -1.75,-0.39 -1.36,0 -2.02,0.9 -2.02,2.71 0,0.86 0.16,1.53 0.5,2 0.35,0.43 0.82,0.67 1.48,0.67 0.74,0 1.44,-0.2 2.1,-0.59l0 1.49c-0.27,0.16 -0.62,0.31 -0.93,0.35 -0.35,0.08 -0.74,0.12 -1.24,0.12z"/>
   <path class="fil0" d="M353.52 69.8l2.37 0 2.1 5.86c0.3,0.81 0.5,1.62 0.61,2.35l0.08 0c0.04,-0.35 0.15,-0.77 0.31,-1.23 0.15,-0.5 0.92,-2.81 2.33,-6.98l2.37 0 -4.39 11.68c-0.76,2.16 -2.1,3.24 -3.97,3.24 -0.46,0 -0.92,-0.08 -1.37,-0.19l0 -1.7c0.3,0.08 0.69,0.12 1.11,0.12 1.03,0 1.79,-0.62 2.21,-1.85l0.38 -0.96 -4.12 -10.33zm-1.45 10.33l-2.18 0 0 -6.36c0,-0.77 -0.15,-1.39 -0.5,-1.77 -0.31,-0.39 -0.8,-0.58 -1.49,-0.58 -0.92,0 -1.6,0.27 -2.02,0.81 -0.42,0.54 -0.65,1.47 -0.65,2.78l0 5.13 -2.18 0 0 -10.33 1.72 0 0.3 1.35 0.12 0c0.31,-0.46 0.73,-0.85 1.3,-1.12 0.57,-0.27 1.22,-0.42 1.91,-0.42 2.44,0 3.66,1.27 3.66,3.78l0 6.75zm-16.79 -1.5c0.8,0 1.41,-0.23 1.91,-0.66 0.46,-0.46 0.69,-1.08 0.69,-1.89l0 -0.89 -1.3 0.04c-1.03,0.04 -1.76,0.23 -2.21,0.54 -0.5,0.31 -0.73,0.77 -0.73,1.43 0,0.46 0.15,0.81 0.42,1.04 0.27,0.27 0.69,0.38 1.22,0.38zm3.24 1.5l-0.46 -1.43 -0.08 0c-0.5,0.62 -0.99,1.04 -1.49,1.27 -0.5,0.23 -1.15,0.35 -1.91,0.35 -0.99,0 -1.79,-0.27 -2.33,-0.85 -0.57,-0.54 -0.88,-1.31 -0.88,-2.31 0,-1.04 0.42,-1.85 1.18,-2.39 0.8,-0.54 1.98,-0.85 3.59,-0.89l1.76 -0.08 0 -0.54c0,-0.66 -0.15,-1.16 -0.46,-1.47 -0.31,-0.35 -0.8,-0.5 -1.41,-0.5 -0.53,0 -1.03,0.08 -1.53,0.23 -0.46,0.15 -0.92,0.35 -1.37,0.54l-0.69 -1.54c0.53,-0.31 1.14,-0.54 1.79,-0.69 0.69,-0.15 1.3,-0.23 1.87,-0.23 1.3,0 2.29,0.31 2.94,0.89 0.65,0.54 0.99,1.47 0.99,2.7l0 6.94 -1.53 0zm-13.51 -8.71c-0.88,0 -1.49,0.27 -1.91,0.77 -0.38,0.5 -0.57,1.31 -0.57,2.43l0 0.35c0,1.23 0.19,2.16 0.57,2.7 0.38,0.58 1.03,0.85 1.91,0.85 0.76,0 1.34,-0.31 1.76,-0.93 0.42,-0.62 0.61,-1.5 0.61,-2.66 0,-1.16 -0.19,-2.04 -0.61,-2.62 -0.38,-0.58 -0.99,-0.89 -1.76,-0.89zm0.5 8.9c-1.26,0 -2.29,-0.5 -2.98,-1.43l-0.15 0c0.08,0.89 0.15,1.39 0.15,1.58l0 4.24 -2.18 0 0 -14.92 1.76 0c0.04,0.19 0.15,0.65 0.31,1.39l0.11 0c0.65,-1.04 1.68,-1.58 3.01,-1.58 1.3,0 2.29,0.46 2.98,1.43 0.73,0.93 1.07,2.24 1.07,3.93 0,1.66 -0.34,2.97 -1.07,3.93 -0.72,0.92 -1.72,1.43 -3.01,1.43zm-14.62 -0.19l-2.18 0 0 -6.36c0,-0.81 -0.15,-1.39 -0.46,-1.77 -0.31,-0.39 -0.76,-0.58 -1.38,-0.58 -0.84,0 -1.45,0.27 -1.87,0.81 -0.38,0.58 -0.57,1.47 -0.57,2.78l0 5.13 -2.18 0 0 -10.33 1.72 0 0.31 1.35 0.11 0c0.27,-0.46 0.69,-0.85 1.22,-1.12 0.53,-0.27 1.15,-0.42 1.76,-0.42 1.6,0 2.63,0.54 3.13,1.62l0.15 0c0.31,-0.5 0.73,-0.89 1.26,-1.2 0.57,-0.27 1.18,-0.42 1.91,-0.42 1.22,0 2.1,0.31 2.63,0.96 0.57,0.62 0.84,1.54 0.84,2.81l0 6.75 -2.14 0 0 -6.36c0,-0.81 -0.15,-1.39 -0.46,-1.77 -0.31,-0.39 -0.76,-0.58 -1.41,-0.58 -0.84,0 -1.45,0.27 -1.83,0.81 -0.38,0.5 -0.57,1.35 -0.57,2.43l0 5.47zm-18.55 -5.17c0,2.35 0.88,3.55 2.63,3.55 1.72,0 2.56,-1.2 2.56,-3.55 0,-2.39 -0.84,-3.55 -2.6,-3.55 -0.92,0 -1.57,0.31 -1.99,0.93 -0.38,0.58 -0.61,1.47 -0.61,2.62zm7.44 0c0,1.66 -0.42,2.97 -1.3,3.93 -0.84,0.92 -2.02,1.43 -3.55,1.43 -0.95,0 -1.79,-0.23 -2.52,-0.66 -0.76,-0.46 -1.3,-1.08 -1.72,-1.89 -0.38,-0.81 -0.57,-1.77 -0.57,-2.81 0,-1.7 0.42,-3.01 1.26,-3.93 0.84,-0.92 2.06,-1.43 3.59,-1.43 1.49,0 2.67,0.5 3.51,1.47 0.88,0.96 1.3,2.24 1.3,3.89zm-15.08 -6.75c-1.26,0 -2.25,0.46 -2.98,1.35 -0.72,0.92 -1.11,2.16 -1.11,3.74 0,1.7 0.38,2.97 1.07,3.82 0.69,0.85 1.72,1.27 3.02,1.27 0.57,0 1.14,-0.04 1.68,-0.15 0.53,-0.12 1.11,-0.27 1.68,-0.46l0 1.93c-1.07,0.39 -2.29,0.62 -3.63,0.62 -1.95,0 -3.47,-0.62 -4.54,-1.81 -1.07,-1.23 -1.56,-2.97 -1.56,-5.2 0,-1.43 0.23,-2.66 0.76,-3.7 0.5,-1.08 1.26,-1.89 2.21,-2.47 0.99,-0.54 2.1,-0.85 3.44,-0.85 1.37,0 2.63,0.31 3.82,0.89l-0.8 1.85c-0.46,-0.23 -0.92,-0.42 -1.45,-0.58 -0.5,-0.15 -1.03,-0.23 -1.6,-0.23zm-13.21 8.98c0,1 -0.38,1.77 -1.11,2.31 -0.73,0.54 -1.76,0.81 -3.09,0.81 -1.37,0 -2.48,-0.23 -3.28,-0.66l0 -1.89c1.18,0.58 2.29,0.85 3.32,0.85 1.34,0 2.02,-0.38 2.02,-1.23 0,-0.23 -0.08,-0.46 -0.23,-0.66 -0.15,-0.15 -0.38,-0.35 -0.72,-0.54 -0.34,-0.15 -0.8,-0.39 -1.41,-0.62 -1.18,-0.46 -1.98,-0.93 -2.41,-1.39 -0.38,-0.46 -0.61,-1.04 -0.61,-1.77 0,-0.89 0.34,-1.58 1.07,-2.08 0.69,-0.46 1.64,-0.73 2.86,-0.73 1.22,0 2.33,0.27 3.4,0.77l-0.69 1.62c-1.11,-0.46 -2.02,-0.69 -2.79,-0.69 -1.14,0 -1.72,0.35 -1.72,1 0,0.31 0.15,0.62 0.46,0.81 0.31,0.23 0.95,0.54 1.95,0.92 0.84,0.35 1.45,0.66 1.83,0.92 0.38,0.27 0.69,0.58 0.88,0.93 0.15,0.38 0.27,0.81 0.27,1.31zm-15.84 -4.05c0,0.66 0.15,1.12 0.5,1.46 0.31,0.35 0.8,0.54 1.41,0.54 1.26,0 1.87,-0.69 1.87,-2.04 0,-0.66 -0.15,-1.16 -0.46,-1.54 -0.31,-0.35 -0.8,-0.54 -1.41,-0.54 -0.65,0 -1.11,0.19 -1.45,0.54 -0.31,0.35 -0.46,0.89 -0.46,1.58zm-0.95 8.56c0,0.5 0.23,0.85 0.65,1.12 0.42,0.23 0.99,0.35 1.76,0.35 1.18,0 2.06,-0.15 2.67,-0.5 0.57,-0.35 0.84,-0.77 0.84,-1.35 0,-0.46 -0.15,-0.77 -0.46,-0.96 -0.34,-0.19 -0.92,-0.27 -1.76,-0.27l-1.64 0c-0.65,0 -1.15,0.15 -1.49,0.42 -0.38,0.31 -0.57,0.69 -0.57,1.2zm8.02 -11.91l0 1.23 -1.72 0.31c0.15,0.23 0.27,0.46 0.38,0.81 0.11,0.31 0.15,0.66 0.15,1 0,1.04 -0.34,1.89 -1.07,2.51 -0.73,0.62 -1.72,0.93 -3.01,0.93 -0.31,0 -0.61,-0.04 -0.88,-0.08 -0.46,0.27 -0.69,0.62 -0.69,1 0,0.23 0.08,0.42 0.31,0.54 0.23,0.12 0.61,0.19 1.22,0.19l1.76 0c1.14,0 1.98,0.23 2.6,0.73 0.57,0.46 0.84,1.16 0.84,2.08 0,1.16 -0.46,2.04 -1.41,2.7 -0.95,0.62 -2.33,0.96 -4.12,0.96 -1.41,0 -2.48,-0.27 -3.21,-0.77 -0.73,-0.5 -1.07,-1.2 -1.07,-2.12 0,-0.62 0.19,-1.16 0.57,-1.58 0.42,-0.42 0.95,-0.73 1.68,-0.93 -0.31,-0.12 -0.53,-0.31 -0.73,-0.58 -0.19,-0.27 -0.27,-0.58 -0.27,-0.89 0,-0.39 0.11,-0.69 0.31,-0.96 0.23,-0.27 0.53,-0.54 0.95,-0.81 -0.53,-0.23 -0.95,-0.58 -1.26,-1.12 -0.34,-0.5 -0.5,-1.12 -0.5,-1.81 0,-1.12 0.34,-2.01 1.03,-2.62 0.69,-0.62 1.68,-0.92 2.98,-0.92 0.31,0 0.61,0.04 0.92,0.08 0.3,0.04 0.57,0.08 0.72,0.12l3.51 0zm-11.6 10.33l-2.18 0 0 -6.36c0,-0.77 -0.19,-1.39 -0.5,-1.77 -0.31,-0.39 -0.8,-0.58 -1.53,-0.58 -0.92,0 -1.56,0.27 -1.98,0.81 -0.42,0.54 -0.65,1.47 -0.65,2.78l0 5.13 -2.18 0 0 -10.33 1.72 0 0.3 1.35 0.11 0c0.31,-0.46 0.73,-0.85 1.3,-1.12 0.57,-0.27 1.18,-0.42 1.87,-0.42 2.48,0 3.7,1.27 3.7,3.78l0 6.75zm-14.39 -13.07c0,-0.38 0.11,-0.69 0.31,-0.89 0.23,-0.19 0.53,-0.31 0.92,-0.31 0.38,0 0.69,0.11 0.88,0.31 0.23,0.19 0.34,0.5 0.34,0.89 0,0.39 -0.11,0.69 -0.34,0.89 -0.19,0.23 -0.5,0.35 -0.88,0.35 -0.38,0 -0.69,-0.12 -0.92,-0.35 -0.19,-0.19 -0.31,-0.5 -0.31,-0.89zm2.29 13.07l-2.18 0 0 -10.33 2.18 0 0 10.33zm-9.92 -1.58c0.88,0 1.53,-0.27 1.95,-0.77 0.42,-0.5 0.61,-1.35 0.65,-2.47l0 -0.31c0,-1.31 -0.23,-2.24 -0.65,-2.78 -0.42,-0.54 -1.07,-0.81 -1.95,-0.81 -0.76,0 -1.37,0.31 -1.79,0.93 -0.38,0.62 -0.61,1.5 -0.61,2.7 0,1.12 0.19,2.01 0.61,2.58 0.38,0.62 0.99,0.92 1.79,0.92zm-0.57 1.77c-1.3,0 -2.29,-0.46 -2.98,-1.43 -0.72,-0.93 -1.07,-2.24 -1.07,-3.89 0,-1.7 0.34,-3.05 1.07,-3.97 0.73,-0.92 1.72,-1.43 3.01,-1.43 1.34,0 2.37,0.5 3.05,1.5l0.11 0c-0.11,-0.73 -0.15,-1.31 -0.15,-1.74l0 -3.78 2.18 0 0 14.53 -1.72 0 -0.34 -1.35 -0.11 0c-0.69,1 -1.72,1.54 -3.05,1.54zm-6.56 -0.19l-2.14 0 0 -14.53 2.14 0 0 14.53zm-12.06 -5.17c0,2.35 0.84,3.55 2.59,3.55 1.72,0 2.6,-1.2 2.6,-3.55 0,-2.39 -0.88,-3.55 -2.6,-3.55 -0.92,0 -1.6,0.31 -1.98,0.93 -0.42,0.58 -0.61,1.47 -0.61,2.62zm7.4 0c0,1.66 -0.42,2.97 -1.26,3.93 -0.88,0.92 -2.06,1.43 -3.59,1.43 -0.95,0 -1.79,-0.23 -2.52,-0.66 -0.72,-0.46 -1.3,-1.08 -1.72,-1.89 -0.38,-0.81 -0.57,-1.77 -0.57,-2.81 0,-1.7 0.42,-3.01 1.26,-3.93 0.88,-0.92 2.06,-1.43 3.59,-1.43 1.49,0 2.67,0.5 3.51,1.47 0.88,0.96 1.3,2.24 1.3,3.89zm-12.37 5.17l-2.21 0 0 -6.17 -6.22 0 0 6.17 -2.21 0 0 -13.65 2.21 0 0 5.59 6.22 0 0 -5.59 2.21 0 0 13.65zm-18.89 0l-2.18 0 0 -14.53 2.18 0 0 14.53zm-9.96 -1.5c0.76,0 1.41,-0.23 1.87,-0.66 0.5,-0.46 0.73,-1.08 0.73,-1.89l0 -0.89 -1.3 0.04c-1.03,0.04 -1.76,0.23 -2.25,0.54 -0.46,0.31 -0.69,0.77 -0.69,1.43 0,0.46 0.15,0.81 0.42,1.04 0.27,0.27 0.69,0.38 1.22,0.38zm3.21 1.5l-0.42 -1.43 -0.08 0c-0.5,0.62 -0.99,1.04 -1.49,1.27 -0.5,0.23 -1.15,0.35 -1.91,0.35 -0.99,0 -1.79,-0.27 -2.37,-0.85 -0.53,-0.54 -0.84,-1.31 -0.84,-2.31 0,-1.04 0.38,-1.85 1.18,-2.39 0.76,-0.54 1.98,-0.85 3.55,-0.89l1.79 -0.08 0 -0.54c0,-0.66 -0.15,-1.16 -0.46,-1.47 -0.31,-0.35 -0.8,-0.5 -1.41,-0.5 -0.53,0 -1.03,0.08 -1.53,0.23 -0.46,0.15 -0.92,0.35 -1.37,0.54l-0.69 -1.54c0.53,-0.31 1.15,-0.54 1.79,-0.69 0.65,-0.15 1.3,-0.23 1.87,-0.23 1.3,0 2.29,0.31 2.94,0.89 0.65,0.54 0.99,1.47 0.99,2.7l0 6.94 -1.56 0zm-10 -1.58c0.53,0 1.07,-0.12 1.6,-0.27l0 1.66c-0.27,0.11 -0.57,0.19 -0.95,0.27 -0.38,0.08 -0.76,0.11 -1.14,0.11 -2.06,0 -3.09,-1.12 -3.09,-3.28l0 -5.59 -1.41 0 0 -0.96 1.49 -0.81 0.76 -2.16 1.34 0 0 2.28 2.9 0 0 1.66 -2.9 0 0 5.55c0,0.5 0.11,0.89 0.38,1.16 0.27,0.23 0.61,0.39 1.03,0.39zm-9.2 -11.49c0,-0.38 0.11,-0.69 0.31,-0.89 0.23,-0.19 0.53,-0.31 0.92,-0.31 0.38,0 0.69,0.11 0.88,0.31 0.23,0.19 0.34,0.5 0.34,0.89 0,0.39 -0.11,0.69 -0.34,0.89 -0.19,0.23 -0.5,0.35 -0.88,0.35 -0.38,0 -0.69,-0.12 -0.92,-0.35 -0.19,-0.19 -0.31,-0.5 -0.31,-0.89zm2.29 13.07l-2.18 0 0 -10.33 2.18 0 0 10.33zm-9.28 -8.71c-0.88,0 -1.49,0.27 -1.91,0.77 -0.38,0.5 -0.57,1.31 -0.57,2.43l0 0.35c0,1.23 0.19,2.16 0.57,2.7 0.38,0.58 1.03,0.85 1.95,0.85 0.73,0 1.3,-0.31 1.72,-0.93 0.42,-0.62 0.61,-1.5 0.61,-2.66 0,-1.16 -0.19,-2.04 -0.61,-2.62 -0.38,-0.58 -0.99,-0.89 -1.76,-0.89zm0.5 8.9c-1.26,0 -2.29,-0.5 -2.98,-1.43l-0.15 0c0.11,0.89 0.15,1.39 0.15,1.58l0 4.24 -2.17 0 0 -14.92 1.76 0c0.04,0.19 0.15,0.65 0.31,1.39l0.11 0c0.65,-1.04 1.68,-1.58 3.02,-1.58 1.3,0 2.29,0.46 2.98,1.43 0.73,0.93 1.07,2.24 1.07,3.93 0,1.66 -0.34,2.97 -1.07,3.93 -0.72,0.92 -1.72,1.43 -3.01,1.43zm-12.98 -1.7c0.8,0 1.41,-0.23 1.91,-0.66 0.46,-0.46 0.72,-1.08 0.72,-1.89l0 -0.89 -1.34 0.04c-0.99,0.04 -1.76,0.23 -2.21,0.54 -0.46,0.31 -0.69,0.77 -0.69,1.43 0,0.46 0.12,0.81 0.38,1.04 0.27,0.27 0.69,0.38 1.22,0.38zm3.24 1.5l-0.46 -1.43 -0.04 0c-0.5,0.62 -0.99,1.04 -1.49,1.27 -0.5,0.23 -1.15,0.35 -1.95,0.35 -0.99,0 -1.76,-0.27 -2.33,-0.85 -0.57,-0.54 -0.84,-1.31 -0.84,-2.31 0,-1.04 0.38,-1.85 1.15,-2.39 0.8,-0.54 1.99,-0.85 3.59,-0.89l1.76 -0.08 0 -0.54c0,-0.66 -0.15,-1.16 -0.46,-1.47 -0.31,-0.35 -0.76,-0.5 -1.41,-0.5 -0.53,0 -1.03,0.08 -1.49,0.23 -0.5,0.15 -0.95,0.35 -1.41,0.54l-0.69 -1.54c0.57,-0.31 1.15,-0.54 1.83,-0.69 0.65,-0.15 1.26,-0.23 1.83,-0.23 1.34,0 2.29,0.31 2.94,0.89 0.69,0.54 0.99,1.47 0.99,2.7l0 6.94 -1.53 0zm-12.41 -11.91c-1.26,0 -2.25,0.46 -2.98,1.35 -0.73,0.92 -1.11,2.16 -1.11,3.74 0,1.7 0.34,2.97 1.07,3.82 0.69,0.85 1.68,1.27 3.02,1.27 0.57,0 1.15,-0.04 1.68,-0.15 0.53,-0.12 1.07,-0.27 1.64,-0.46l0 1.93c-1.03,0.39 -2.25,0.62 -3.59,0.62 -1.99,0 -3.47,-0.62 -4.54,-1.81 -1.07,-1.23 -1.6,-2.97 -1.6,-5.2 0,-1.43 0.27,-2.66 0.76,-3.7 0.53,-1.08 1.26,-1.89 2.25,-2.47 0.95,-0.54 2.1,-0.85 3.44,-0.85 1.37,0 2.63,0.31 3.82,0.89l-0.8 1.85c-0.46,-0.23 -0.95,-0.42 -1.45,-0.58 -0.5,-0.15 -1.03,-0.23 -1.6,-0.23zm-13.89 11.91l-2.18 0 0 -6.36c0,-0.77 -0.15,-1.39 -0.5,-1.77 -0.31,-0.39 -0.8,-0.58 -1.49,-0.58 -0.92,0 -1.6,0.27 -2.02,0.81 -0.42,0.54 -0.65,1.47 -0.65,2.78l0 5.13 -2.14 0 0 -10.33 1.68 0 0.31 1.35 0.11 0c0.31,-0.46 0.76,-0.85 1.3,-1.12 0.57,-0.27 1.22,-0.42 1.91,-0.42 2.44,0 3.67,1.27 3.67,3.78l0 6.75zm-16.8 -1.5c0.8,0 1.41,-0.23 1.91,-0.66 0.46,-0.46 0.69,-1.08 0.69,-1.89l0 -0.89 -1.3 0.04c-1.03,0.04 -1.76,0.23 -2.21,0.54 -0.46,0.31 -0.72,0.77 -0.72,1.43 0,0.46 0.15,0.81 0.42,1.04 0.27,0.27 0.69,0.38 1.22,0.38zm3.24 1.5l-0.46 -1.43 -0.08 0c-0.5,0.62 -0.95,1.04 -1.49,1.27 -0.5,0.23 -1.11,0.35 -1.91,0.35 -0.99,0 -1.79,-0.27 -2.33,-0.85 -0.57,-0.54 -0.84,-1.31 -0.84,-2.31 0,-1.04 0.38,-1.85 1.14,-2.39 0.8,-0.54 1.98,-0.85 3.59,-0.89l1.76 -0.08 0 -0.54c0,-0.66 -0.15,-1.16 -0.46,-1.47 -0.31,-0.35 -0.76,-0.5 -1.41,-0.5 -0.53,0 -1.03,0.08 -1.53,0.23 -0.46,0.15 -0.92,0.35 -1.37,0.54l-0.69 -1.54c0.53,-0.31 1.15,-0.54 1.79,-0.69 0.69,-0.15 1.3,-0.23 1.87,-0.23 1.3,0 2.29,0.31 2.94,0.89 0.69,0.54 0.99,1.47 0.99,2.7l0 6.94 -1.53 0zm-11.64 0.19c-1.57,0 -2.71,-0.46 -3.51,-1.39 -0.8,-0.89 -1.22,-2.2 -1.22,-3.89 0,-1.77 0.42,-3.08 1.26,-4.01 0.84,-0.96 2.06,-1.43 3.66,-1.43 1.07,0 2.02,0.23 2.9,0.62l-0.65 1.77c-0.92,-0.35 -1.68,-0.54 -2.29,-0.54 -1.76,0 -2.63,1.19 -2.63,3.55 0,1.16 0.19,2.04 0.65,2.62 0.46,0.58 1.07,0.85 1.95,0.85 0.95,0 1.87,-0.23 2.71,-0.73l0 1.93c-0.38,0.23 -0.8,0.39 -1.22,0.5 -0.46,0.08 -0.99,0.15 -1.6,0.15zm-9.5 -13.26c0,-0.38 0.08,-0.69 0.31,-0.89 0.23,-0.19 0.53,-0.31 0.92,-0.31 0.38,0 0.69,0.11 0.88,0.31 0.23,0.19 0.34,0.5 0.34,0.89 0,0.39 -0.12,0.69 -0.34,0.89 -0.19,0.23 -0.5,0.35 -0.88,0.35 -0.38,0 -0.69,-0.12 -0.92,-0.35 -0.23,-0.19 -0.31,-0.5 -0.31,-0.89zm2.29 13.07l-2.18 0 0 -10.33 2.18 0 0 10.33zm-5.15 -10.52c0.46,0 0.8,0.04 1.07,0.12l-0.19 2.04c-0.31,-0.08 -0.65,-0.12 -0.95,-0.12 -0.88,0 -1.56,0.27 -2.1,0.85 -0.57,0.58 -0.84,1.31 -0.84,2.24l0 5.4 -2.14 0 0 -10.33 1.68 0 0.31 1.81 0.08 0c0.34,-0.62 0.8,-1.08 1.34,-1.46 0.53,-0.35 1.15,-0.54 1.76,-0.54zm-6.91 1.85l-2.48 0 0 8.67 -2.18 0 0 -8.67 -1.68 0 0 -1 1.68 -0.69 0 -0.66c0,-1.23 0.27,-2.12 0.84,-2.7 0.57,-0.62 1.41,-0.89 2.6,-0.89 0.76,0 1.53,0.11 2.25,0.38l-0.57 1.66c-0.53,-0.19 -1.03,-0.27 -1.53,-0.27 -0.5,0 -0.84,0.16 -1.07,0.46 -0.23,0.31 -0.34,0.77 -0.34,1.39l0 0.66 2.48 0 0 1.66zm-10.95 2.97l-1.26 -3.74c-0.08,-0.23 -0.23,-0.62 -0.38,-1.16 -0.15,-0.54 -0.27,-0.93 -0.34,-1.2 -0.15,0.77 -0.42,1.62 -0.72,2.55l-1.22 3.55 3.93 0zm1.95 5.71l-1.37 -3.78 -5.15 0 -1.3 3.78 -2.33 0 5.04 -13.69 2.41 0 5.04 13.69 -2.33 0zm-11.64 0l-2.18 0 0 -6.36c0,-0.77 -0.15,-1.39 -0.46,-1.77 -0.31,-0.39 -0.84,-0.58 -1.53,-0.58 -0.92,0 -1.56,0.27 -1.98,0.81 -0.46,0.54 -0.65,1.47 -0.65,2.78l0 5.13 -2.18 0 0 -10.33 1.68 0 0.31 1.35 0.11 0c0.31,-0.46 0.76,-0.85 1.34,-1.12 0.57,-0.27 1.18,-0.42 1.87,-0.42 2.44,0 3.67,1.27 3.67,3.78l0 6.75zm-16.8 -1.5c0.8,0 1.45,-0.23 1.91,-0.66 0.5,-0.46 0.73,-1.08 0.73,-1.89l0 -0.89 -1.3 0.04c-1.03,0.04 -1.79,0.23 -2.25,0.54 -0.46,0.31 -0.69,0.77 -0.69,1.43 0,0.46 0.11,0.81 0.42,1.04 0.27,0.27 0.65,0.38 1.18,0.38zm3.25 1.5l-0.42 -1.43 -0.08 0c-0.5,0.62 -0.99,1.04 -1.49,1.27 -0.5,0.23 -1.15,0.35 -1.91,0.35 -1.03,0 -1.79,-0.27 -2.37,-0.85 -0.57,-0.54 -0.84,-1.31 -0.84,-2.31 0,-1.04 0.38,-1.85 1.18,-2.39 0.76,-0.54 1.95,-0.85 3.55,-0.89l1.76 -0.08 0 -0.54c0,-0.66 -0.15,-1.16 -0.46,-1.47 -0.31,-0.35 -0.76,-0.5 -1.41,-0.5 -0.5,0 -1.03,0.08 -1.49,0.23 -0.5,0.15 -0.95,0.35 -1.37,0.54l-0.73 -1.54c0.57,-0.31 1.18,-0.54 1.83,-0.69 0.65,-0.15 1.26,-0.23 1.87,-0.23 1.3,0 2.25,0.31 2.94,0.89 0.65,0.54 0.99,1.47 0.99,2.7l0 6.94 -1.56 0zm-15.57 -6.98l1.18 0c1.11,0 1.95,-0.19 2.48,-0.62 0.53,-0.39 0.8,-1 0.8,-1.85 0,-0.77 -0.27,-1.35 -0.72,-1.73 -0.46,-0.39 -1.22,-0.58 -2.21,-0.58l-1.53 0 0 4.78zm6.72 -2.55c0,1.43 -0.46,2.51 -1.37,3.28 -0.92,0.77 -2.25,1.16 -3.93,1.16l-1.41 0 0 5.09 -2.21 0 0 -13.65 3.89 0c1.68,0 2.94,0.35 3.78,1.04 0.84,0.69 1.26,1.74 1.26,3.08zm-19.89 3.82l-1.26 -3.74c-0.11,-0.23 -0.23,-0.62 -0.38,-1.16 -0.19,-0.54 -0.3,-0.93 -0.34,-1.2 -0.19,0.77 -0.42,1.62 -0.72,2.55l-1.22 3.55 3.93 0zm1.91 5.71l-1.34 -3.78 -5.15 0 -1.34 3.78 -2.33 0 5.08 -13.69 2.37 0 5.08 13.69 -2.37 0z"/>
   <path class="fil1" d="M208.6 0.63l9.06 0 12.63 20.53 0 -20.53 9.41 0 0.04 38.55 -8.2 0 -0.66 0 -2.68 -4.08 -9.83 -16.21 -0.19 -0.16 0 20.45c-3.15,-0.08 -6.49,0.04 -9.6,0 0,-12.76 0.04,-25.83 0.04,-38.55z"/>
   <polygon class="fil1" points="345.87,0.63 347.31,3.73 349.64,8.84 352.21,14.53 352.56,15.08 353.8,12.33 356.91,5.74 359.08,0.83 359.28,0.63 369.58,0.63 369.38,1.93 366.86,7.03 365.03,10.49 362.31,15.79 358.89,22.58 357.8,24.74 357.61,25.29 357.61,39.18 347.54,39.18 347.54,25.13 345.33,20.73 343.5,17.28 339.89,10.13 337.17,4.83 335.38,1.18 335.38,0.63 "/>
   <path class="fil1" d="M139.06 10.8c1.09,-1.18 2.37,-2 4,-2.12 1.55,-0.08 3.19,0.35 4.35,1.45 1.16,1.06 1.4,1.53 1.94,2.98 0.93,2.51 0.85,6.09 0.78,8.71 -0.08,3.38 -0.74,7.11 -4.08,8.75 -2.22,1.1 -5.29,0.51 -6.84,-1.41 -1.44,-1.73 -2.1,-4.36 -2.25,-6.59 -0.12,-2.51 -0.16,-5.97 0.51,-8.4 0.31,-1.26 0.74,-2.39 1.59,-3.38zm-10.96 0.98c0.93,-2.71 2.14,-5.03 4.12,-7.14 2.68,-2.87 6.61,-4.51 10.49,-4.59 2.68,-0.04 4,0.12 6.53,0.98 6.72,2.35 9.56,8.16 10.69,14.88 1.4,9.66 -2.22,21.4 -12.79,23.59 -3.42,0.71 -6.8,0.24 -10.03,-1.06 -4.08,-1.73 -6.92,-4.79 -8.51,-8.91l-0.08 -0.24c-0.97,-2.67 -1.32,-4.79 -1.36,-7.62 -0.04,-3.3 -0.12,-6.71 0.93,-9.89z"/>
   <path class="fil1" d="M75.67 8.96c1.2,0.08 2.6,0.08 3.57,0.79 2.64,1.96 1.98,6.83 -1.59,7.73 -0.66,0.16 -1.36,0.2 -2.06,0.24 -1.48,0.08 -2.95,0 -4.43,0.04l-0.04 -8.83 4.55 0.04zm-13.99 -8.32l9.76 0c3.26,0 6.14,-0.16 9.33,0.55 6.37,1.37 10.22,4.91 9.6,12.91 -0.31,3.85 -1.52,7.22 -5.83,9.07l8.24 16.02 -10.26 0 -7.07 -12.95 -0.35 -0.2 -3.96 0 -0.04 13.15 -9.41 0 0 -38.55z"/>
   <path class="fil1" d="M124.49 14.73l-8.98 0c-1.05,-1.53 -1.13,-3.53 -2.06,-4.67 -1.48,-1.77 -5.4,-1.81 -7.23,-0.75 -1.01,0.59 -1.67,1.41 -2.14,2.47l-0.23 0.47c-0.93,2.36 -1.09,5.77 -1.05,8.32 0,3.02 0.35,6.2 2.21,8.68 1.28,1.73 3.61,2.12 5.6,2.08 0.89,-0.04 2.99,-0.71 3.96,-0.98l-0.08 -4.32 -6.49 0 0 -8.24 16.44 0c0,1.96 0.16,15.66 0,16.09 -0.58,0.82 -1.71,1.92 -2.56,2.55 -5.21,3.77 -13.84,4.24 -19.71,1.84l-0.19 -0.08c-1.87,-0.79 -4.35,-2.87 -5.56,-4.51 -2.88,-3.85 -3.93,-10.4 -3.77,-15.11l0.04 -0.23c0.16,-3.96 1.56,-9.46 3.96,-12.6 2.57,-3.22 4.86,-4.36 8.74,-5.34 1.98,-0.51 5.56,-0.55 7.54,0 3.69,0.94 7.11,2.36 9.17,5.77 1.94,3.3 2.37,4.91 2.37,8.56z"/>
   <polygon class="fil1" points="33.31,0.63 59.54,0.63 59.54,8.96 43.06,8.96 43.06,15.35 56.98,15.35 56.98,23.64 43.06,23.64 43.06,30.86 59.54,30.86 59.54,39.18 33.31,39.18 "/>
   <polygon class="fil1" points="-0,0.63 31.33,0.63 31.33,8.96 20.68,8.96 20.64,39.18 10.69,39.18 10.69,8.96 -0,8.96 "/>
   <polygon class="fil1" points="180.11,0.63 206.3,0.63 206.3,8.96 189.86,8.96 189.86,15.35 203.78,15.35 203.78,23.64 189.86,23.64 189.86,30.86 206.3,30.86 206.3,39.18 180.11,39.18 "/>
   <polygon class="fil1" points="243.96,0.63 270.2,0.63 270.2,8.96 253.76,8.96 253.76,15.35 267.67,15.35 267.67,23.64 253.76,23.64 253.76,30.86 270.2,30.86 270.2,39.18 244,39.18 "/>
   <path class="fil1" d="M335.03 14.73l-8.94 0c-1.09,-1.53 -1.16,-3.53 -2.1,-4.67 -1.48,-1.77 -5.4,-1.81 -7.23,-0.75 -1.01,0.59 -1.67,1.41 -2.14,2.47l-0.23 0.47c-0.93,2.36 -1.09,5.77 -1.05,8.32 0,3.02 0.35,6.2 2.21,8.68 1.28,1.73 3.62,2.12 5.6,2.08 0.89,-0.04 2.99,-0.71 3.96,-0.98l-0.08 -4.32 -6.49 0 0 -8.24 16.44 0c0,1.96 0.16,15.66 0,16.09 -0.58,0.82 -1.71,1.92 -2.56,2.55 -5.21,3.77 -13.84,4.24 -19.7,1.84l-0.19 -0.08c-1.83,-0.79 -4.35,-2.87 -5.56,-4.51 -2.88,-3.85 -3.93,-10.4 -3.77,-15.11l0.04 -0.23c0.16,-3.96 1.55,-9.46 3.96,-12.6 2.57,-3.22 4.86,-4.36 8.75,-5.34 1.98,-0.51 5.56,-0.55 7.54,0 3.69,0.94 7.11,2.36 9.17,5.77 1.94,3.3 2.37,4.91 2.37,8.56z"/>
   <path class="fil1" d="M286.02 8.96c1.17,0.08 2.57,0.08 3.58,0.79 2.6,1.96 1.94,6.83 -1.63,7.73 -0.66,0.16 -1.36,0.2 -2.02,0.24l-0.04 0c-1.48,0.08 -2.95,0 -4.43,0.04l0 -8.83 4.55 0.04zm-13.99 -8.32l9.76 0c3.27,0 6.1,-0.16 9.33,0.55 6.37,1.37 10.22,4.91 9.56,12.91 -0.31,3.85 -1.48,7.22 -5.79,9.07l8.2 16.02 -10.26 0 -7.03 -12.95 -0.39 -0.2 -3.93 0 -0.04 13.15 -9.41 0 0 -38.55z"/>
  </g>
 </g>
</svg>
